<mxfile host="app.diagrams.net" modified="2023-12-28T17:56:25.104Z" agent="Mozilla/5.0 (X11; Linux x86_64; rv:109.0) Gecko/20100101 Firefox/117.0" version="22.1.15" etag="a9zzsmVUuCH-3FSWXneA" type="github">
  <diagram name="PÃ¡gina-1" id="1q-AEfCuzPCuveIos0gP">
    <mxGraphModel>
      <root>
        <mxCell id="0" />
        <mxCell id="1" parent="0" />
      </root>
    </mxGraphModel>
  </diagram>
</mxfile>
